# xmcd CD database file
#
# Track frame offsets:
#	150
#	29593
#	46112
#	58245
#	76458
#	95992
#	109089
#	125556
#	141394
#	164345
#	182716
#	198255
#	211561
#
# Disc length: 3089 seconds
#
# Revision: 7
# Processed by: cddbd v1.5.2PL0 Copyright (c) Steve Scherf et al.
# Submitted via: CDex 1.51
#
DISCID=bc0c0f0d
DTITLE=Kenny Chesney - Hemingway's Whiskey
DYEAR=2010
DGENRE=Country
TTITLE0=Kenny Chesney - The Boys Of Fall
TTITLE1=Kenny Chesney - Live A Little
TTITLE2=Kenny Chesney - Coastal
TTITLE3=Kenny Chesney feat. Grace Potter - You And Tequila
TTITLE4=Kenny Chesney - Seven Days
TTITLE5=Kenny Chesney with George Jones - Small Y'all
TTITLE6=Kenny Chesney - Where I Grew Up
TTITLE7=Kenny Chesney - Reality
TTITLE8=Kenny Chesney - Round And Round
TTITLE9=Kenny Chesney - Somewhere With You
TTITLE10=Kenny Chesney - Hemingway's Whiskey
TTITLE11=Kenny Chesney - Ain't Ever Going Back Again
TTITLE12=Kenny Chesney - I Didn't Get Here Alone
EXTD=YEAR: 2010
EXTT0=
EXTT1=
EXTT2=
EXTT3=
EXTT4=
EXTT5=
EXTT6=
EXTT7=
EXTT8=
EXTT9=
EXTT10=
EXTT11=
EXTT12=
PLAYORDER=
